<svg width="1200" height="700" viewBox="0 0 1200 700" xmlns="http://www.w3.org/2000/svg">
  <defs>
    <linearGradient id="bg" x1="0" y1="0" x2="1" y2="1">
      <stop offset="0%" stop-color="#1f4e79"/>
      <stop offset="55%" stop-color="#2e86c1"/>
      <stop offset="100%" stop-color="#2874a6"/>
    </linearGradient>
  </defs>
  <rect width="1200" height="700" fill="url(#bg)"/>
  <g opacity="0.2" stroke="#ecf0f1" stroke-width="1.5">
    <path d="M0 80H1200M0 160H1200M0 240H1200M0 320H1200M0 400H1200M0 480H1200M0 560H1200M0 640H1200"/>
    <path d="M100 0V700M200 0V700M300 0V700M400 0V700M500 0V700M600 0V700M700 0V700M800 0V700M900 0V700M1000 0V700M1100 0V700"/>
  </g>
  <rect x="145" y="150" width="910" height="400" rx="28" fill="#ffffff" fill-opacity="0.9"/>
  <text x="220" y="255" font-family="Arial, sans-serif" font-size="72" font-weight="700" fill="#34495e">x² + y² = r²</text>
  <text x="220" y="350" font-family="Arial, sans-serif" font-size="64" font-weight="700" fill="#5d6d7e">Σ (a + b) / n</text>
  <text x="220" y="440" font-family="Arial, sans-serif" font-size="72" font-weight="700" fill="#34495e">π  √  ∫  Δ</text>
  <circle cx="940" cy="230" r="52" fill="#f5b041" fill-opacity="0.9"/>
  <rect x="888" y="325" width="104" height="104" rx="18" fill="#48c9b0" fill-opacity="0.9"/>
  <polygon points="940,470 1000,540 880,540" fill="#af7ac5" fill-opacity="0.9"/>
  <text x="600" y="625" text-anchor="middle" font-family="Arial, sans-serif" font-size="64" font-weight="700" fill="#ffffff" fill-opacity="0.33">MATHEMATICS</text>
</svg>
