<svg width="1200" height="700" viewBox="0 0 1200 700" xmlns="http://www.w3.org/2000/svg">
  <defs>
    <linearGradient id="bg" x1="0" y1="0" x2="1" y2="1">
      <stop offset="0%" stop-color="#b03a2e"/>
      <stop offset="55%" stop-color="#884ea0"/>
      <stop offset="100%" stop-color="#2e4053"/>
    </linearGradient>
  </defs>
  <rect width="1200" height="700" fill="url(#bg)"/>
  <rect x="180" y="460" width="840" height="100" rx="10" fill="#f4f6f7" fill-opacity="0.9"/>
  <rect x="250" y="260" width="700" height="210" rx="10" fill="#ecf0f1" fill-opacity="0.95"/>
  <polygon points="220,260 600,130 980,260" fill="#d5dbdb"/>
  <rect x="320" y="300" width="70" height="170" fill="#aeb6bf"/>
  <rect x="445" y="300" width="70" height="170" fill="#aeb6bf"/>
  <rect x="570" y="300" width="70" height="170" fill="#aeb6bf"/>
  <rect x="695" y="300" width="70" height="170" fill="#aeb6bf"/>
  <rect x="820" y="300" width="70" height="170" fill="#aeb6bf"/>
  <rect x="550" y="210" width="20" height="70" fill="#fefefe"/>
  <rect x="570" y="210" width="20" height="70" fill="#2e86c1"/>
  <rect x="590" y="210" width="20" height="70" fill="#ec7063"/>
  <circle cx="1040" cy="170" r="64" fill="#ffffff" fill-opacity="0.2"/>
  <text x="1040" y="188" text-anchor="middle" font-family="Arial, sans-serif" font-size="70" fill="#ffffff" fill-opacity="0.65">⚖</text>
  <text x="600" y="630" text-anchor="middle" font-family="Arial, sans-serif" font-size="64" font-weight="700" fill="#ffffff" fill-opacity="0.3">POLITICS</text>
</svg>
